<svg xmlns="http://www.w3.org/2000/svg" viewBox="0 0 512 512">
  <rect width="512" height="512" rx="80" fill="#F5F2EC"/>
  <defs>
    <linearGradient id="g" x1="0" y1="0" x2="1" y2="1">
      <stop offset="0%" stop-color="#5a9e6f"/>
      <stop offset="100%" stop-color="#2D5A3D"/>
    </linearGradient>
  </defs>
  <!-- Kvitteringsform -->
  <path d="M140 60 L372 60 L372 410 L352 440 L332 410 L310 440 L288 410 L266 440 L244 410 L222 440 L200 410 L178 440 L156 410 L140 410 Z" fill="rgba(45,90,61,0.06)" stroke="url(#g)" stroke-width="8"/>
  <!-- Lodret streg -->
  <rect x="168" y="100" width="44" height="290" rx="10" fill="url(#g)"/>
  <!-- Vandrette linjer -->
  <rect x="168" y="100" width="56" height="44" rx="8" fill="url(#g)"/>
  <rect x="230" y="100" width="50" height="44" rx="8" fill="url(#g)" opacity="0.70"/>
  <rect x="286" y="100" width="40" height="44" rx="8" fill="url(#g)" opacity="0.40"/>
  <rect x="332" y="100" width="28" height="44" rx="8" fill="url(#g)" opacity="0.20"/>
  <rect x="168" y="195" width="56" height="38" rx="8" fill="url(#g)"/>
  <rect x="230" y="195" width="44" height="38" rx="8" fill="url(#g)" opacity="0.60"/>
  <rect x="280" y="195" width="32" height="38" rx="8" fill="url(#g)" opacity="0.28"/>
</svg>
